<svg width="32" height="32" xmlns="http://www.w3.org/2000/svg"><g fill="#60F" fill-rule="nonzero"><path d="M5.873 12.53h4.454v13.4H5.873zM8.07 10.701h.03c1.554 0 2.52-1.03 2.52-2.316-.029-1.315-.966-2.315-2.49-2.315-1.525 0-2.522 1-2.522 2.315 0 1.287.969 2.316 2.463 2.316zM17.247 25.93v-7.484c0-.401.03-.8.148-1.086.322-.801 1.054-1.629 2.285-1.629 1.613 0 2.257 1.23 2.257 3.03v7.169h4.455v-7.684c0-4.116-2.198-6.03-5.13-6.03-2.366 0-3.423 1.302-4.015 2.213v.043h-.03l.03-.043v-1.9H12.79c.06 1.258 0 13.4 0 13.4h4.456v.001z"/><path d="M0 0v32h32V0H0zm30.02 30.02H1.98V1.98h28.04v28.04z"/></g></svg>