<svg width="32" height="32" xmlns="http://www.w3.org/2000/svg"><g fill="#60F" fill-rule="nonzero"><path d="M8.39 11.264a.78.78 0 00-.254-.658L6.254 8.339V8h5.843l4.516 9.905L20.583 8h5.57v.339L24.546 9.88a.47.47 0 00-.179.452v11.334a.47.47 0 00.179.452l1.571 1.542V24h-7.903v-.339l1.627-1.58c.16-.16.16-.207.16-.451v-9.162l-4.525 11.494h-.612L9.594 12.468v7.704c-.044.324.064.65.292.884l2.117 2.568v.338H6v-.338l2.117-2.568c.226-.235.328-.563.273-.884v-8.908z"/><path d="M0 0v32h32V0H0zm30.02 30.02H1.98V1.98h28.04v28.04z"/></g></svg>