<svg width="32" height="32" xmlns="http://www.w3.org/2000/svg"><g fill="#60F" fill-rule="nonzero"><path d="M5.608 22.53a12.066 12.066 0 006.537 1.915c7.843 0 12.131-6.497 12.131-12.132 0-.185-.004-.369-.012-.552a8.658 8.658 0 002.128-2.207 8.524 8.524 0 01-2.45.672 4.277 4.277 0 001.876-2.36 8.538 8.538 0 01-2.708 1.035 4.264 4.264 0 00-7.266 3.89 12.105 12.105 0 01-8.789-4.456 4.244 4.244 0 00-.577 2.144c0 1.48.753 2.784 1.897 3.55a4.247 4.247 0 01-1.931-.534v.053c0 2.066 1.47 3.79 3.42 4.181a4.282 4.282 0 01-1.926.073 4.268 4.268 0 003.983 2.961 8.555 8.555 0 01-5.295 1.826c-.345 0-.684-.02-1.018-.06z"/><path d="M0 0v32h32V0H0zm30.02 30.02H1.98V1.98h28.04v28.04z"/></g></svg>